<?xml version="1.0" encoding="utf-8"?>
<!-- Generator: Adobe Illustrator 17.0.0, SVG Export Plug-In . SVG Version: 6.00 Build 0)  -->
<!DOCTYPE svg PUBLIC "-//W3C//DTD SVG 1.1//EN" "http://www.w3.org/Graphics/SVG/1.1/DTD/svg11.dtd">
<svg version="1.1" id="Layer_1" xmlns="http://www.w3.org/2000/svg" xmlns:xlink="http://www.w3.org/1999/xlink" x="0px" y="0px"
	 width="1000px" height="649.997px" viewBox="0 0 1000 649.997" enable-background="new 0 0 1000 649.997" xml:space="preserve">
<g>
	<g>
		<g>
			<g>
				<path fill="#C3009E" d="M577.236,118.034c0.146,0.127,0.353,0.155,0.529,0.073c0.175-0.082,0.285-0.26,0.281-0.453
					c-0.519-24.646-18.629-55.323-74.744-55.323c-49.476,0-86.987,19.818-86.987,69.322c0,53.164,39.998,76.885,94.396,76.885
					c21.531,0,62.012-4.244,62.012-25.705c0-15.418-28.34-17.688-43.818-17.688c-58.723,0-130.21,38.898-130.21,102.486
					c0,62.975,55.594,82.365,104.499,82.365c60.475,0,98.113-28.403,98.113-62.351c0-22.119-15.462-51.75-30.512-67.419
					c-0.117-0.122-0.29-0.175-0.455-0.139c-0.166,0.035-0.302,0.154-0.358,0.315l-5.361,15.143
					c-0.085,0.239-0.338,0.374-0.583,0.311l-23.252-5.974c-0.213-0.055-0.436,0.039-0.545,0.23c-0.11,0.189-0.08,0.43,0.073,0.587
					c5.468,5.606,26.726,29.185,26.726,56.946c0,35.889-30.436,55.139-63.846,55.139c-43.534,0-72.04-27.328-72.04-75.153
					c0-99.477,107.542-102.49,107.542-84.799c0,31.218-95.286,21.123-95.286-52.793c0-35.697,29.354-56.029,59.784-56.029
					c26.842,0,49.548,16.438,50.381,38.216c0.008,0.19,0.125,0.359,0.302,0.433c0.176,0.073,0.379,0.037,0.52-0.092l7.712-7.124
					c0.184-0.17,0.465-0.174,0.653-0.01L577.236,118.034z"/>
			</g>
		</g>
		<path fill="#C3009E" d="M479.775,52.962c-0.21,0.094-0.325,0.322-0.278,0.547c0.048,0.226,0.246,0.387,0.477,0.389
			c13.861,0.082,88.71-1.862,89.888-53.398c0.004-0.201-0.115-0.385-0.301-0.462c-0.185-0.078-0.4-0.034-0.54,0.11
			c-11.335,11.71-14.89,14.251-15.828,14.793c-0.168,0.097-0.376,0.086-0.533-0.027l-13.274-9.653
			c-0.147-0.107-0.339-0.124-0.501-0.045c-0.163,0.079-0.269,0.24-0.275,0.421c-1.132,28.458-47.986,37.472-56.122,38.824
			c-0.195,0.032-0.352,0.181-0.396,0.374c-0.044,0.194,0.034,0.396,0.197,0.51l4.951,3.451c0.145,0.102,0.224,0.271,0.207,0.447
			s-0.126,0.328-0.286,0.4L479.775,52.962z"/>
	</g>
	<g>
		<path fill="#C3009E" d="M134.127,515.353c-1.539,8.994-6.68,32.645-8.994,40.645H0v-7.037c23.125-1.797,25-3.854,25-24.922
			V422.542c0-23.127-2-23.896-22-25.695v-7.85h115.967c0.258,6,1.545,23.836,2.314,37.459l-7.709,1.383
			c-2.312-10.536-5.139-16.477-8.736-21.874c-3.596-5.398-10.535-6.968-28.266-6.968H58.068c-8.221,0-9.068,0.418-9.068,8.127
			v57.873h23.461c22.867,0,24.408-2,27.75-19H108v49h-7.789c-3.342-18-5.396-20-27.75-20H49v48.016
			c0,12.334,1.708,17.982,6.333,21.068c4.883,3.082,13.958,3.082,26.034,3.082c18.502,0,26.253-2.057,31.907-8.477
			c4.365-5.4,9.27-14.235,13.125-24.519L134.127,515.353z M104.066,364.472l-48.822,16.186l-3.084-6.424
			c13.877-9.25,28.521-19.016,41.111-27.237c3.342,0.771,10.537,11.049,11.307,15.161L104.066,364.472z"/>
		<path fill="#C3009E" d="M237.926,428.706c-4.367-16.19-11.822-34.174-33.918-34.174c-18.758,0-27.75,13.619-27.75,27.752
			c0,17.988,11.818,26.723,32.377,37.258c21.326,10.795,44.707,23.123,44.707,51.391c0,27.494-23.381,49.336-58.068,49.336
			c-10.279,0-18.76-1.803-25.182-3.854c-6.684-2.061-10.537-4.111-13.361-5.4c-2.059-5.648-5.398-27.49-6.937-40.596l7.707-2.055
			c4.369,15.928,16.445,42.396,42.652,42.396c18.758,0,29.809-11.82,29.809-30.062s-13.619-27.496-32.633-37.773
			c-18.5-9.766-42.91-22.611-42.91-50.879c0-25.438,20.297-46.505,53.957-46.505c12.592,0,24.154,3.339,32.891,5.907
			c1.029,9.252,2.568,19.528,4.627,35.977L237.926,428.706z"/>
		<path fill="#C3009E" d="M405.453,429.995c-2.826-12.593-5.398-19.098-8.736-23.466c-4.369-5.913-8.738-7.532-27.494-7.532H352
			v125.295c0,20.561,2,23.129,26,24.668v7.037h-75v-7.037c23-1.539,25-3.854,25-24.668V398.997h-14.535
			c-21.328,0-26.211,2.136-29.809,7.788c-3.082,4.368-5.652,11.212-8.479,23.212h-7.967c1.283-16,2.568-33,3.084-47h5.396
			c3.855,6,6.94,6,14.133,6h102.008c6.939,0,9.254-1,13.105-6h5.654c0,12,1.283,31.078,2.568,46.241L405.453,429.995z"/>
		<path fill="#C3009E" d="M509,555.997v-7.037c16-2.057,18.24-4.268,14.644-14.547c-3.084-9.506-7.969-23.416-13.363-37.416h-53.959
			c-3.857,11-7.684,21.23-11.281,31.762C439.902,544.433,442,546.904,461,548.96v7.037h-56v-7.037
			c17-2.311,20.136-4.107,28.872-26.465l53.235-134.386l9.02-2.568c15.932,44.196,33.155,92.501,49.6,136.954
			C553.95,544.853,557,547.163,574,548.96v7.037H509z M484.586,421.997h-0.771c-7.969,21-15.932,42-23.383,63h45.994
			L484.586,421.997z"/>
		<path fill="#C3009E" d="M588,555.997v-7.037c21-1.539,23-3.082,23-24.922V421.773c0-21.842-2-23.385-23-24.926v-7.85h70v7.85
			c-21,1.541-23,3.084-23,24.926v102.266c0,21.84,2,23.383,23,24.922v7.037H588z"/>
		<path fill="#C3009E" d="M853,396.847c-15,0.771-20.239,4.109-21.523,15.415c-0.769,7.97-1.477,19.53-1.477,43.169v103.566h-9.084
			l-108.949-134H711v63.582c0,23.383,1.038,35.713,1.812,43.168C714.093,544.595,720,547.935,738,548.96v7.037h-61v-7.037
			c14-1.025,20.993-4.365,22.276-16.699c0.769-7.969,1.724-20.299,1.724-43.682v-56.017c0-18.244-0.638-20.3-5.263-26.208
			c-5.137-6.423-10.737-8.482-22.737-9.507v-7.85h39.482l105.605,126H819v-59.566c0-23.639-1.039-35.199-1.809-42.653
			C815.906,401.214,810,397.871,792,396.847v-7.85h61V396.847z"/>
		<path fill="#C3009E" d="M1000,515.353c-1.541,8.994-6.682,32.645-8.994,40.645H866v-7.037c23-1.797,25-3.594,25-24.922V422.542
			c0-23.127-2-23.896-22-25.695v-7.85h115.838c0.26,6,1.543,23.836,2.314,37.459l-7.709,1.383
			c-2.315-10.536-5.137-16.477-8.738-21.874c-3.598-5.398-10.537-6.968-28.266-6.968h-18.5c-8.223,0-8.94,0.418-8.94,8.127v57.873
			h23.33c22.869,0,24.408-2,27.752-19H974v49h-7.918c-3.344-18-5.398-20-27.752-20H915v48.016c0,12.334,1.646,17.982,6.267,21.068
			c4.883,3.082,13.929,3.082,26.005,3.082c18.498,0,26.238-2.057,31.893-8.477c4.363-5.4,9.259-14.235,13.112-24.519L1000,515.353z"
			/>
	</g>
	<g>
		<path fill="#C3009E" d="M147,605.997v3h-19v16h18v3h-18v21h-3v-43H147z"/>
		<path fill="#C3009E" d="M180.596,605.411c6.426,0,11.871,2.164,16.338,6.49c4.467,4.32,6.701,9.6,6.701,15.82
			c0,6.205-2.234,11.465-6.701,15.791c-4.467,4.32-9.912,6.484-16.338,6.484c-6.404,0-11.83-2.164-16.275-6.484
			c-4.447-4.326-6.67-9.586-6.67-15.791c0-6.221,2.223-11.5,6.67-15.82C168.766,607.575,174.191,605.411,180.596,605.411z
			 M180.721,646.886c5.408,0,9.973-1.85,13.693-5.557c3.721-3.701,5.58-8.236,5.58-13.607c0-5.396-1.859-9.941-5.58-13.643
			c-3.721-3.707-8.285-5.557-13.693-5.557c-5.432,0-10.025,1.85-13.787,5.557c-3.764,3.701-5.641,8.246-5.641,13.643
			c0,5.371,1.877,9.906,5.641,13.607C170.695,645.036,175.289,646.886,180.721,646.886z"/>
		<path fill="#C3009E" d="M218,605.997h11.488c4.668,0,8.234,0.998,10.703,3.019c2.469,2.027,3.701,4.756,3.701,8.193
			c0,5.023-2.758,8.546-8.273,10.573c1.43,0.693,3.359,2.675,5.787,6.411l9.83,14.803h-3.977l-7.572-11.69
			c-2.529-3.984-4.498-6.16-5.908-7.141c-1.41-0.986-3.473-1.17-6.191-1.17H222v20h-4V605.997z M222,608.997v17h6.93
			c3.672,0,6.477-0.845,8.414-2.329c1.939-1.479,2.91-3.63,2.91-6.351c0-2.676-0.986-4.672-2.955-6.166
			c-1.971-1.494-4.803-2.154-8.494-2.154H222z"/>
		<path fill="#C3009E" d="M302.471,605.997l20.092,43h-3.525l-6.875-15h-21.254l-6.852,15h-3.525l20.092-43H302.471z
			 M310.881,631.997l-9.365-20.473l-9.332,20.473H310.881z"/>
		<path fill="#C3009E" d="M362,605.997v41h21v2h-25v-43H362z"/>
		<path fill="#C3009E" d="M398,605.997v43h-3v-43H398z"/>
		<path fill="#C3009E" d="M438,605.997v3h-19v16h17v3h-17v21h-4v-43H438z"/>
		<path fill="#C3009E" d="M473,605.997v3h-20v17h20v3h-20v18h21v2h-24v-43H473z"/>
		<path fill="#C3009E" d="M532,608.152v3.701c-4-2.217-7.118-3.33-9.835-3.33c-2.615,0-4.845,0.795-6.599,2.387
			c-1.752,1.582-2.651,3.545-2.651,5.889c0,1.68,0.505,3.199,1.54,4.541c1.037,1.353,3.199,2.652,6.498,3.893
			c3.297,1.244,5.702,2.285,7.214,3.115c1.514,0.824,2.8,2.031,3.858,3.607c1.057,1.572,1.583,3.619,1.583,6.129
			c0,3.34-1.22,6.156-3.667,8.461c-2.451,2.301-5.359,3.453-8.883,3.453c-3.607,0-7.059-1.26-11.059-3.795v-3.955
			c4,3.092,7.781,4.639,10.871,4.639c2.574,0,4.704-0.834,6.476-2.504c1.775-1.67,2.642-3.717,2.642-6.143
			c0-1.852-0.559-3.512-1.656-4.996c-1.1-1.484-3.337-2.871-6.694-4.16c-3.355-1.293-5.76-2.328-7.203-3.119
			c-1.441-0.781-2.668-1.91-3.674-3.369c-1.008-1.465-1.51-3.346-1.51-5.645c0-3.189,1.224-5.914,3.669-8.164
			c2.447-2.252,5.489-3.375,8.933-3.375C525.233,605.411,528,606.329,532,608.152z"/>
		<path fill="#C3009E" d="M580,605.997h3v23.682c0,6.5-1.676,11.504-5.06,15.029c-3.379,3.525-7.751,5.289-13.122,5.289
			c-5.352,0-9.542-1.738-12.925-5.225c-3.379-3.482-4.893-8.258-4.893-14.312v-24.463h3v24.342c0,5.18,1.394,9.232,4.14,12.158
			c2.75,2.924,6.315,4.389,10.671,4.389c4.395,0,8.145-1.479,10.893-4.434c2.75-2.959,4.297-7.148,4.297-12.582V605.997z"/>
		<path fill="#C3009E" d="M619,608.152v3.701c-3-2.217-6.829-3.33-9.55-3.33c-2.609,0-4.696,0.795-6.45,2.387
			c-1.756,1.582-2.579,3.545-2.579,5.889c0,1.68,0.539,3.199,1.576,4.541c1.037,1.353,3.218,2.652,6.517,3.893
			c3.299,1.244,5.709,2.285,7.223,3.115c1.514,0.824,2.804,2.031,3.86,3.607c1.059,1.572,1.585,3.619,1.585,6.129
			c0,3.34-1.22,6.156-3.665,8.461c-2.449,2.301-5.645,3.453-9.164,3.453c-3.611,0-7.352-1.26-11.352-3.795v-3.955
			c5,3.092,8.073,4.639,11.159,4.639c2.576,0,4.853-0.834,6.622-2.504c1.775-1.67,2.716-3.717,2.716-6.143
			c0-1.852-0.525-3.512-1.623-4.996c-1.102-1.484-3.318-2.871-6.676-4.16c-3.357-1.293-5.754-2.328-7.193-3.119
			c-1.443-0.781-2.664-1.91-3.67-3.369c-1.006-1.465-1.511-3.346-1.511-5.645c0-3.189,1.228-5.914,3.675-8.164
			c2.447-2.252,5.199-3.375,8.643-3.375C612.523,605.411,616,606.329,619,608.152z"/>
		<path fill="#C3009E" d="M667,605.997v3h-16v40h-4v-40h-16v-3H667z"/>
		<path fill="#C3009E" d="M690.283,605.997l20.098,43h-3.527l-6.875-15h-21.256l-6.85,15h-3.525l20.09-43H690.283z M698.697,631.997
			l-9.367-20.473l-9.332,20.473H698.697z"/>
		<path fill="#C3009E" d="M726,605.997v43h-4v-43H726z"/>
		<path fill="#C3009E" d="M782,605.997v43h-3.018L746,611.452v37.545h-3v-43h2.428L778,643.962v-37.965H782z"/>
		<path fill="#C3009E" d="M822,605.997v3h-20v17h20v3h-20v18h21v2h-24v-43H822z"/>
		<path fill="#C3009E" d="M836,605.997h15.31c7.688,0,13.557,2.01,17.609,6.057c4.053,4.043,6.08,9.262,6.08,15.674
			c0,6.283-2.008,11.253-6.018,15.349c-4.012,4.102-9.705,5.921-17.084,5.921H836V605.997z M839,608.997v38h12.713
			c5.615,0,10.297-1.904,14.033-5.361c3.74-3.451,5.613-8.117,5.613-13.824c0-5.576-1.848-10.064-5.535-13.59
			c-3.686-3.525-8.463-5.225-14.326-5.225H839z"/>
	</g>
</g>
</svg>
